<?xml version="1.0" encoding="UTF-8" standalone="no"?>
<svg
   version="1.1"
   id="svg5"
   width="193"
   height="59"
   xmlns="http://www.w3.org/2000/svg"
   xmlns:svg="http://www.w3.org/2000/svg"
   xmlns:xhtml="http://www.w3.org/1999/xhtml">
  <defs
     id="defs5" />
  <xhtml:style>
    .blocklyText {
        fill: #FFFFFF;
        font-family: &quot;Helvetica Neue&quot;, Helvetica, sans-serif;
        font-size: 12pt;
        font-weight: 500;
    }
    .blocklyNonEditableText&gt;text, .blocklyEditableText&gt;text {
        fill: #575E75;
    }
    .blocklyDropdownText {
        fill: #FFFFFF !important;
    }
    </xhtml:style>
  <g
     data-id="FjDc{YNV_vmoDHYAThyd"
     class="blocklyDraggable blocklySelected"
     data-shapes="stack"
     data-category="motion"
     id="g5">
    <path
       class="blocklyPath blocklyBlockBackground"
       stroke="#3373CC"
       fill="#4C97FF"
       fill-opacity="1"
       d="M 2,6 A 4,4 0 0 1 6,2 h 8 c 2,0 3,1 4,2 l 4,4 c 1,1 2,2 4,2 h 12 c 2,0 3,-1 4,-2 l 4,-4 c 1,-1 2,-2 4,-2 h 137.39352 a 4,4 0 0 1 4,4 v 40 a 4,4 0 0 1 -4,4 H 50 c -2,0 -3,1 -4,2 l -4,4 c -1,1 -2,2 -4,2 H 26 c -2,0 -3,-1 -4,-2 L 18,52 C 17,51 16,50 14,50 H 6 A 4,4 0 0 1 2,46 Z"
       id="path1"
       style="fill:#f6eff6;fill-opacity:0.7;stroke:#e3e2e4;stroke-opacity:1" />
    <path
       class="blocklyPath"
       style="visibility:hidden"
       d=""
       fill="#3373cc"
       id="path4" />
  </g>
</svg>
