<?xml version="1.0" encoding="UTF-8" standalone="no"?>
<svg
   version="1.1"
   id="svg1"
   width="95"
   height="60"
   xmlns="http://www.w3.org/2000/svg"
   xmlns:svg="http://www.w3.org/2000/svg"
   xmlns:xhtml="http://www.w3.org/1999/xhtml">
  <defs
     id="defs1" />
  <xhtml:style>
    .blocklyText {
        fill: #FFFFFF;
        font-family: &quot;Helvetica Neue&quot;, Helvetica, sans-serif;
        font-size: 12pt;
        font-weight: 500;
    }
    .blocklyNonEditableText&gt;text, .blocklyEditableText&gt;text {
        fill: #575E75;
    }
    .blocklyDropdownText {
        fill: #FFFFFF !important;
    }
    </xhtml:style>
  <g
     data-id="erCyMu=KA)7^q}`jEmh0"
     class="blocklyDraggable blocklySelected"
     data-shapes="stack"
     data-category="sensing"
     id="g1">
    <path
       class="blocklyPath blocklyBlockBackground"
       stroke="#2E8EB8"
       fill="#5CB1D6"
       fill-opacity="1"
       d="M 2,6 A 4,4 0 0 1 6,2 h 8 c 2,0 3,1 4,2 l 4,4 c 1,1 2,2 4,2 h 12 c 2,0 3,-1 4,-2 l 4,-4 c 1,-1 2,-2 4,-2 h 39.578125 a 4,4 0 0 1 4,4 v 40 a 4,4 0 0 1 -4,4 H 50 c -2,0 -3,1 -4,2 l -4,4 c -1,1 -2,2 -4,2 H 26 c -2,0 -3,-1 -4,-2 L 18,52 C 17,51 16,50 14,50 H 6 A 4,4 0 0 1 2,46 Z"
       id="path1"
       style="fill:#f6eef6;fill-opacity:0.7;stroke:#e3e2e4;stroke-width:1.00157;stroke-dasharray:none;stroke-opacity:1" />
    <text
       class="blocklyText"
       y="2"
       text-anchor="middle"
       dominant-baseline="middle"
       x="37.789062"
       transform="translate(8,24)"
       id="text1" />
  </g>
</svg>
